<?xml version="1.0" encoding="utf-8"?>
<!-- Generator: Adobe Illustrator 18.1.1, SVG Export Plug-In . SVG Version: 6.00 Build 0)  -->
<svg version="1.1" id="Layer_1" xmlns="http://www.w3.org/2000/svg" xmlns:xlink="http://www.w3.org/1999/xlink" x="0px" y="0px"
	 viewBox="0 0 458 215" enable-background="new 0 0 458 215" xml:space="preserve">
<g>
	<path fill="#283238" d="M1208.6,871.5c-2.5,0-3.6,1.4-4.2,2.3v0h0c0,0,0,0,0,0v-2h-4.7c0.1,1.3,0,14.1,0,14.1h4.7V878
		c0-0.4,0-0.8,0.2-1.1c0.3-0.8,1.1-1.7,2.4-1.7c1.7,0,2.4,1.3,2.4,3.2v7.5h4.7v-8.1C1213.9,873.5,1211.6,871.5,1208.6,871.5z"/>
	<path fill="#283238" d="M1194.7,865c-1.6,0-2.7,1.1-2.7,2.4c0,1.4,1,2.4,2.6,2.4h0c1.6,0,2.7-1.1,2.7-2.4
		C1197.3,866,1196.3,865,1194.7,865z"/>
	<rect x="1192.4" y="871.8" fill="#283238" width="4.7" height="14.1"/>
</g>
<g>
	<path fill="#00E676" d="M20.3,5.3c0.2,0.2,0.3,0.5,0.3,0.8c0,0.3-0.1,0.6-0.3,0.8c-0.2,0.2-0.5,0.3-0.8,0.3H14v15.3
		c0,0.3-0.1,0.6-0.4,0.9c-0.2,0.2-0.5,0.3-0.9,0.3s-0.6-0.1-0.9-0.3c-0.2-0.2-0.3-0.5-0.3-0.9V7.2H6.1c-0.3,0-0.6-0.1-0.8-0.3
		C5.1,6.7,5,6.4,5,6.1c0-0.3,0.1-0.6,0.3-0.8C5.5,5.1,5.8,5,6.1,5h13.3C19.8,5,20,5.1,20.3,5.3z"/>
	<path fill="#00E676" d="M37.3,4.8c0.3,0,0.6,0.1,0.9,0.4c0.2,0.2,0.4,0.5,0.4,0.9v16.5c0,0.3-0.1,0.6-0.4,0.9
		c-0.2,0.2-0.5,0.3-0.9,0.3s-0.6-0.1-0.9-0.3c-0.2-0.2-0.3-0.5-0.3-0.9v-7.1H26v7.1c0,0.3-0.1,0.6-0.4,0.9c-0.2,0.2-0.5,0.3-0.9,0.3
		c-0.3,0-0.6-0.1-0.9-0.3c-0.2-0.2-0.3-0.5-0.3-0.9V6.1c0-0.3,0.1-0.6,0.3-0.9c0.2-0.2,0.5-0.4,0.9-0.4c0.3,0,0.6,0.1,0.9,0.4
		C25.9,5.4,26,5.7,26,6.1v7.1h10.1V6.1c0-0.3,0.1-0.6,0.3-0.9C36.7,4.9,37,4.8,37.3,4.8z"/>
	<path fill="#00E676" d="M56.5,21.7c0.2,0.2,0.3,0.5,0.3,0.8c0,0.3-0.1,0.6-0.3,0.8c-0.2,0.2-0.5,0.3-0.8,0.3H45
		c-0.3,0-0.6-0.1-0.9-0.3c-0.2-0.2-0.3-0.5-0.3-0.9V6.2c0-0.3,0.1-0.6,0.3-0.9C44.3,5.1,44.6,5,45,5h10.7c0.3,0,0.6,0.1,0.8,0.3
		c0.2,0.2,0.3,0.5,0.3,0.8c0,0.3-0.1,0.6-0.3,0.8c-0.2,0.2-0.5,0.3-0.8,0.3h-9.5v5.9h8.5c0.3,0,0.6,0.1,0.8,0.3
		c0.2,0.2,0.3,0.5,0.3,0.8c0,0.3-0.1,0.6-0.3,0.8c-0.2,0.2-0.5,0.3-0.8,0.3h-8.5v5.9h9.5C56,21.4,56.3,21.5,56.5,21.7z"/>
	<path fill="#00E676" d="M81.8,4.8c0.3,0,0.6,0.1,0.9,0.4C82.9,5.4,83,5.7,83,6.1v10.6c0,2.3-0.8,4.2-2.5,5.5
		c-1.4,1.2-3.2,1.8-5.2,1.8c-2,0-3.8-0.6-5.2-1.8c-1.7-1.3-2.5-3.2-2.5-5.5V6.1c0-0.3,0.1-0.6,0.3-0.9c0.2-0.2,0.5-0.4,0.9-0.4
		s0.6,0.1,0.9,0.4c0.2,0.2,0.4,0.5,0.4,0.9v10.7c0,1.6,0.5,2.8,1.6,3.7c1,0.8,2.2,1.2,3.6,1.2c1.4,0,2.6-0.4,3.6-1.2
		c1.1-0.9,1.6-2.2,1.6-3.7V6.1c0-0.3,0.1-0.6,0.3-0.9C81.2,4.9,81.5,4.8,81.8,4.8z"/>
	<path fill="#00E676" d="M100.1,21.6c0.2,0.2,0.4,0.5,0.4,0.9s-0.1,0.6-0.4,0.9c-0.2,0.2-0.5,0.3-0.9,0.3h-9.5
		c-0.5,0-0.9-0.2-1.2-0.5c-0.3-0.3-0.5-0.7-0.5-1.2V6.1c0-0.3,0.1-0.6,0.3-0.9c0.2-0.2,0.5-0.4,0.9-0.4c0.3,0,0.6,0.1,0.9,0.4
		c0.2,0.2,0.4,0.5,0.4,0.9v15.1h8.8C99.6,21.2,99.9,21.3,100.1,21.6z"/>
	<path fill="#00E676" d="M116.5,5.3c0.2,0.2,0.3,0.5,0.3,0.8c0,0.3-0.1,0.6-0.3,0.8c-0.2,0.2-0.5,0.3-0.8,0.3h-5.4v15.3
		c0,0.3-0.1,0.6-0.4,0.9c-0.2,0.2-0.5,0.3-0.9,0.3s-0.6-0.1-0.9-0.3c-0.2-0.2-0.3-0.5-0.3-0.9V7.2h-5.5c-0.3,0-0.6-0.1-0.8-0.3
		c-0.2-0.2-0.3-0.5-0.3-0.8c0-0.3,0.1-0.6,0.3-0.8c0.2-0.2,0.5-0.3,0.8-0.3h13.3C116.1,5,116.3,5.1,116.5,5.3z"/>
	<path fill="#00E676" d="M121.1,4.8c0.3,0,0.6,0.1,0.9,0.4c0.2,0.2,0.4,0.5,0.4,0.9v16.5c0,0.3-0.1,0.6-0.4,0.9
		c-0.2,0.2-0.5,0.3-0.9,0.3c-0.3,0-0.6-0.1-0.9-0.3c-0.2-0.2-0.3-0.5-0.3-0.9V6.1c0-0.3,0.1-0.6,0.3-0.9
		C120.4,4.9,120.7,4.8,121.1,4.8z"/>
	<path fill="#00E676" d="M147.6,5.3c0.3,0.3,0.5,0.8,0.5,1.2v16c0,0.3-0.1,0.6-0.3,0.9s-0.5,0.3-0.9,0.3s-0.6-0.1-0.9-0.3
		c-0.2-0.2-0.4-0.5-0.4-0.9V7.4l-6.2,15.3c-0.1,0.3-0.4,0.6-0.7,0.8c-0.3,0.2-0.7,0.3-1,0.3c-0.4,0-0.7-0.1-1-0.3
		c-0.3-0.2-0.5-0.5-0.7-0.8l-6.2-15.3v15.2c0,0.3-0.1,0.6-0.4,0.9s-0.5,0.3-0.9,0.3c-0.3,0-0.6-0.1-0.9-0.3
		c-0.2-0.2-0.3-0.5-0.3-0.9v-16c0-0.5,0.2-0.9,0.5-1.2c0.3-0.3,0.7-0.5,1.2-0.5h0.9c0.4,0,0.7,0.1,1,0.3c0.3,0.2,0.5,0.5,0.7,0.8
		l6.1,15.1l6.1-15.1c0.1-0.3,0.4-0.6,0.7-0.8s0.6-0.3,1-0.3h0.9C146.9,4.8,147.3,5,147.6,5.3z"/>
	<path fill="#00E676" d="M168.6,22c0.1,0.2,0.1,0.4,0.1,0.7c0,0.2-0.1,0.5-0.3,0.7c-0.2,0.2-0.6,0.3-1,0.3c-0.5,0-0.8-0.2-1-0.7
		l-1.7-4.2h-9.1l-1.7,4.2c-0.2,0.5-0.6,0.7-1,0.7c-0.5,0-0.8-0.1-1-0.3c-0.2-0.2-0.3-0.5-0.3-0.7c0-0.2,0-0.5,0.1-0.7l6.8-16.1
		c0.3-0.7,0.8-1.1,1.6-1.1h0.3c0.7,0,1.2,0.4,1.6,1.1L168.6,22z M163.7,16.6l-3.6-8.7l-3.6,8.7H163.7z"/>
	<path fill="#00E676" d="M185,5.3c0.2,0.2,0.3,0.5,0.3,0.8c0,0.3-0.1,0.6-0.3,0.8s-0.5,0.3-0.8,0.3h-5.4v15.3c0,0.3-0.1,0.6-0.4,0.9
		c-0.2,0.2-0.5,0.3-0.9,0.3s-0.6-0.1-0.9-0.3c-0.2-0.2-0.3-0.5-0.3-0.9V7.2h-5.5c-0.3,0-0.6-0.1-0.8-0.3c-0.2-0.2-0.3-0.5-0.3-0.8
		c0-0.3,0.1-0.6,0.3-0.8c0.2-0.2,0.5-0.3,0.8-0.3h13.3C184.5,5,184.8,5.1,185,5.3z"/>
	<path fill="#00E676" d="M201.1,21.7c0.2,0.2,0.3,0.5,0.3,0.8c0,0.3-0.1,0.6-0.3,0.8c-0.2,0.2-0.5,0.3-0.8,0.3h-10.7
		c-0.3,0-0.6-0.1-0.9-0.3c-0.2-0.2-0.3-0.5-0.3-0.9V6.2c0-0.3,0.1-0.6,0.3-0.9c0.2-0.2,0.5-0.4,0.9-0.4h10.7c0.3,0,0.6,0.1,0.8,0.3
		c0.2,0.2,0.3,0.5,0.3,0.8c0,0.3-0.1,0.6-0.3,0.8s-0.5,0.3-0.8,0.3h-9.5v5.9h8.5c0.3,0,0.6,0.1,0.8,0.3c0.2,0.2,0.3,0.5,0.3,0.8
		c0,0.3-0.1,0.6-0.3,0.8c-0.2,0.2-0.5,0.3-0.8,0.3h-8.5v5.9h9.5C200.6,21.4,200.9,21.5,201.1,21.7z"/>
	<path fill="#00E676" d="M225.1,21.7c0.2,0.2,0.3,0.5,0.3,0.8c0,0.3-0.1,0.6-0.3,0.8c-0.2,0.2-0.5,0.3-0.8,0.3h-10.7
		c-0.3,0-0.6-0.1-0.9-0.3c-0.2-0.2-0.3-0.5-0.3-0.9V6.2c0-0.3,0.1-0.6,0.3-0.9c0.2-0.2,0.5-0.4,0.9-0.4h10.7c0.3,0,0.6,0.1,0.8,0.3
		c0.2,0.2,0.3,0.5,0.3,0.8c0,0.3-0.1,0.6-0.3,0.8s-0.5,0.3-0.8,0.3h-9.5v5.9h8.5c0.3,0,0.6,0.1,0.8,0.3c0.2,0.2,0.3,0.5,0.3,0.8
		c0,0.3-0.1,0.6-0.3,0.8c-0.2,0.2-0.5,0.3-0.8,0.3h-8.5v5.9h9.5C224.6,21.4,224.9,21.5,225.1,21.7z"/>
	<path fill="#00E676" d="M236.1,21.3l6.3-15.7c0.2-0.6,0.6-0.8,1-0.8s0.8,0.1,1,0.3c0.2,0.2,0.3,0.5,0.3,0.7c0,0.3,0,0.5-0.1,0.6
		l-6.6,16c-0.4,0.8-0.9,1.2-1.7,1.2h-0.6c-0.7,0-1.3-0.4-1.7-1.2l-6.6-16c-0.1-0.1-0.1-0.3-0.1-0.6c0-0.3,0.1-0.5,0.3-0.7
		c0.2-0.2,0.5-0.3,0.8-0.3c0.6,0,1,0.3,1.2,0.8L236.1,21.3z"/>
	<path fill="#00E676" d="M260.8,21.7c0.2,0.2,0.3,0.5,0.3,0.8c0,0.3-0.1,0.6-0.3,0.8c-0.2,0.2-0.5,0.3-0.8,0.3h-10.7
		c-0.3,0-0.6-0.1-0.9-0.3c-0.2-0.2-0.3-0.5-0.3-0.9V6.2c0-0.3,0.1-0.6,0.3-0.9c0.2-0.2,0.5-0.4,0.9-0.4H260c0.3,0,0.6,0.1,0.8,0.3
		c0.2,0.2,0.3,0.5,0.3,0.8c0,0.3-0.1,0.6-0.3,0.8c-0.2,0.2-0.5,0.3-0.8,0.3h-9.5v5.9h8.5c0.3,0,0.6,0.1,0.8,0.3
		c0.2,0.2,0.3,0.5,0.3,0.8c0,0.3-0.1,0.6-0.3,0.8c-0.2,0.2-0.5,0.3-0.8,0.3h-8.5v5.9h9.5C260.3,21.4,260.5,21.5,260.8,21.7z"/>
	<path fill="#00E676" d="M280.2,4.8c0.3,0,0.6,0.1,0.9,0.4c0.2,0.2,0.4,0.5,0.4,0.9v16c0,0.5-0.2,0.9-0.5,1.2
		c-0.3,0.3-0.8,0.5-1.2,0.5h-0.3c-0.6,0-1.1-0.2-1.4-0.7l-10.4-15v14.5c0,0.3-0.1,0.6-0.4,0.9c-0.2,0.2-0.5,0.3-0.9,0.3
		s-0.6-0.1-0.9-0.3c-0.2-0.2-0.3-0.5-0.3-0.9v-16c0-0.5,0.2-0.9,0.5-1.2c0.3-0.3,0.7-0.5,1.2-0.5h0.3c0.6,0,1,0.3,1.5,0.8L279,20.5
		V6.1c0-0.3,0.1-0.6,0.3-0.9C279.5,4.9,279.8,4.8,280.2,4.8z"/>
	<path fill="#00E676" d="M299.6,5.3c0.2,0.2,0.3,0.5,0.3,0.8c0,0.3-0.1,0.6-0.3,0.8c-0.2,0.2-0.5,0.3-0.8,0.3h-5.4v15.3
		c0,0.3-0.1,0.6-0.4,0.9c-0.2,0.2-0.5,0.3-0.9,0.3s-0.6-0.1-0.9-0.3c-0.2-0.2-0.3-0.5-0.3-0.9V7.2h-5.5c-0.3,0-0.6-0.1-0.8-0.3
		c-0.2-0.2-0.3-0.5-0.3-0.8c0-0.3,0.1-0.6,0.3-0.8c0.2-0.2,0.5-0.3,0.8-0.3h13.3C299.1,5,299.4,5.1,299.6,5.3z"/>
	<path fill="#00E676" d="M317.2,5c2.5,0,4.3,0.6,5.6,1.9c1,1,1.6,2.4,1.6,4c0,1.6-0.5,3-1.6,4c-1.2,1.3-3.1,1.9-5.6,1.9h-4.9v5.7
		c0,0.3-0.1,0.6-0.4,0.9c-0.2,0.2-0.5,0.3-0.9,0.3c-0.3,0-0.6-0.1-0.9-0.3c-0.2-0.2-0.3-0.5-0.3-0.9V6.2c0-0.3,0.1-0.6,0.3-0.9
		c0.2-0.2,0.5-0.4,0.9-0.4H317.2z M317,14.5c1.8,0,3.2-0.4,4-1.2c0.6-0.6,1-1.4,1-2.5c0-1.7-0.8-2.8-2.5-3.3
		c-0.6-0.2-1.5-0.3-2.5-0.3h-4.6v7.3H317z"/>
	<path fill="#00E676" d="M342.4,22.6c0,0.3-0.1,0.6-0.3,0.9c-0.2,0.2-0.5,0.3-0.9,0.3c-0.4,0-0.6-0.1-0.9-0.3
		c-0.2-0.2-0.3-0.5-0.3-0.9v-0.8c0-1.4-0.2-2.5-0.5-3.2c-0.3-0.7-0.8-1.2-1.3-1.6c-0.6-0.4-1.3-0.6-2.4-0.6h-5.5v6.2
		c0,0.3-0.1,0.6-0.4,0.9c-0.2,0.2-0.5,0.3-0.9,0.3c-0.3,0-0.6-0.1-0.9-0.3c-0.2-0.2-0.3-0.5-0.3-0.9V6.2c0-0.3,0.1-0.6,0.3-0.9
		c0.2-0.2,0.5-0.4,0.9-0.4h6.2c2.4,0,4.3,0.5,5.5,1.6c1.2,1,1.7,2.3,1.7,3.9c0,1-0.3,2-0.9,2.9c-0.6,0.9-1.5,1.5-2.6,2
		c1.3,0.3,2.2,1.3,2.8,2.8c0.4,1,0.6,2.1,0.6,3.3V22.6z M335.1,14.1c1.5,0,2.7-0.3,3.6-0.9c0.9-0.6,1.4-1.5,1.4-2.6
		c0-1.1-0.4-1.9-1.1-2.4c-0.9-0.6-2.2-0.9-4.1-0.9h-4.7v6.8H335.1z"/>
	<path fill="#00E676" d="M355.1,4.7c2.8,0,5.1,0.9,6.8,2.7c1.7,1.8,2.5,4.1,2.6,6.9c-0.1,2.8-0.9,5.1-2.6,6.9
		c-1.7,1.8-4,2.7-6.8,2.7c-2.8,0-5.1-0.9-6.8-2.7c-1.7-1.8-2.6-4.1-2.6-6.9c0-2.8,0.9-5.1,2.6-6.9C350,5.6,352.3,4.7,355.1,4.7z
		 M355.1,21.6c2.2,0,3.9-0.7,5.1-2.1c1.2-1.4,1.8-3.1,1.8-5.2c0-2.1-0.6-3.9-1.8-5.2c-1.2-1.4-3-2.1-5.1-2.1c-2.2,0-3.9,0.7-5.1,2.1
		c-1.2,1.4-1.8,3.1-1.8,5.2c0,2.1,0.6,3.9,1.8,5.2C351.2,20.9,352.9,21.6,355.1,21.6z"/>
	<path fill="#00E676" d="M79.7,48.6c1.2,1.3,1.9,2.8,1.9,4.6v58.5c0,1.2-0.4,2.3-1.3,3.1c-0.8,0.8-1.9,1.3-3.1,1.3
		c-1.2,0-2.3-0.4-3.2-1.3c-0.9-0.8-1.3-1.9-1.3-3.1V56L50,111.9c-0.5,1.2-1.3,2.2-2.4,3c-1.1,0.7-2.4,1.1-3.8,1.1
		c-1.4,0-2.7-0.4-3.8-1.1c-1.1-0.7-1.9-1.7-2.4-3L14.8,56v55.6c0,1.2-0.4,2.3-1.3,3.1c-0.9,0.8-1.9,1.3-3.2,1.3
		c-1.2,0-2.3-0.4-3.1-1.3c-0.8-0.8-1.3-1.9-1.3-3.1V53.1c0-1.8,0.6-3.3,1.9-4.6c1.2-1.3,2.7-1.9,4.5-1.9h3.2c1.3,0,2.5,0.4,3.6,1.2
		c1.1,0.8,1.9,1.8,2.4,2.9l22.2,55.4L66,50.8c0.5-1.2,1.3-2.2,2.4-2.9c1.1-0.8,2.3-1.2,3.6-1.2h3.2C76.9,46.7,78.4,47.3,79.7,48.6z"
		/>
	<path fill="#00E676" d="M146.2,108.4c0.8,0.8,1.2,1.8,1.2,3c0,1.2-0.4,2.2-1.2,2.9c-0.8,0.8-1.8,1.2-3,1.2H104
		c-1.2,0-2.3-0.4-3.1-1.3c-0.8-0.8-1.3-1.9-1.3-3.1V51.7c0-1.2,0.4-2.3,1.3-3.2c0.8-0.9,1.9-1.3,3.1-1.3h39.3c1.2,0,2.2,0.4,3,1.2
		c0.8,0.8,1.2,1.8,1.2,3c0,1.2-0.4,2.2-1.2,2.9c-0.8,0.8-1.8,1.2-3,1.2h-34.8v21.6h31.2c1.2,0,2.2,0.4,3,1.2c0.8,0.8,1.2,1.8,1.2,3
		c0,1.2-0.4,2.2-1.2,2.9c-0.8,0.8-1.8,1.2-3,1.2h-31.2v21.7h34.8C144.4,107.2,145.4,107.6,146.2,108.4z"/>
	<path fill="#00E676" d="M234.8,48.6c1.2,1.3,1.9,2.8,1.9,4.6v58.5c0,1.2-0.4,2.3-1.3,3.1c-0.8,0.8-1.9,1.3-3.1,1.3
		c-1.2,0-2.3-0.4-3.2-1.3c-0.9-0.8-1.3-1.9-1.3-3.1V56l-22.6,55.9c-0.5,1.2-1.3,2.2-2.4,3c-1.1,0.7-2.4,1.1-3.8,1.1
		c-1.4,0-2.7-0.4-3.8-1.1c-1.1-0.7-1.9-1.7-2.4-3L170,56v55.6c0,1.2-0.4,2.3-1.3,3.1c-0.9,0.8-1.9,1.3-3.2,1.3
		c-1.2,0-2.3-0.4-3.1-1.3c-0.8-0.8-1.3-1.9-1.3-3.1V53.1c0-1.8,0.6-3.3,1.9-4.6c1.2-1.3,2.7-1.9,4.5-1.9h3.2c1.3,0,2.5,0.4,3.6,1.2
		c1.1,0.8,1.9,1.8,2.4,2.9l22.2,55.4l22.2-55.4c0.5-1.2,1.3-2.2,2.4-2.9c1.1-0.8,2.3-1.2,3.6-1.2h3.2
		C232,46.7,233.5,47.3,234.8,48.6z"/>
	<path fill="#00E676" d="M284.9,46.2c10.3,0,18.6,3.3,24.9,9.9c6.1,6.5,9.2,14.9,9.5,25.3c-0.3,10.4-3.4,18.8-9.5,25.3
		c-6.3,6.6-14.6,9.9-24.9,9.9c-10.4,0-18.7-3.3-24.9-9.9c-6.2-6.5-9.4-14.9-9.5-25.3c0.1-10.3,3.3-18.7,9.5-25.3
		C266.3,49.5,274.5,46.2,284.9,46.2z M284.9,108.2c8,0,14.2-2.6,18.8-7.7c4.4-5,6.7-11.3,6.7-19.1c0-7.8-2.2-14.1-6.7-19.1
		c-4.6-5.2-10.8-7.7-18.8-7.7c-8,0-14.2,2.6-18.8,7.7c-4.4,5-6.7,11.3-6.7,19.1c0,7.8,2.2,14.1,6.7,19.1
		C270.7,105.6,277,108.2,284.9,108.2z"/>
	<path fill="#00E676" d="M386.4,111.6c0,1.2-0.4,2.3-1.3,3.1c-0.8,0.8-1.9,1.3-3.2,1.3c-1.3,0-2.4-0.4-3.2-1.2
		c-0.8-0.8-1.2-1.9-1.2-3.2v-2.9c0-5.3-0.6-9.2-1.8-11.7c-1.2-2.5-2.8-4.5-4.8-5.9c-2-1.5-4.9-2.2-8.6-2.2H342v22.7
		c0,1.2-0.4,2.3-1.3,3.1c-0.9,0.8-1.9,1.3-3.2,1.3c-1.2,0-2.3-0.4-3.1-1.3c-0.8-0.8-1.3-1.9-1.3-3.1V51.7c0-1.2,0.4-2.3,1.3-3.2
		c0.8-0.9,1.9-1.3,3.1-1.3h22.8c8.9,0,15.7,1.9,20.3,5.7c4.2,3.6,6.4,8.3,6.4,14.2c0,3.8-1.1,7.3-3.2,10.6c-2.1,3.3-5.3,5.6-9.6,7.1
		c4.7,1.2,8.1,4.6,10.2,10.2c1.4,3.7,2.1,7.8,2.1,12.1V111.6z M359.7,80.4c5.5,0,9.9-1.1,13.3-3.2c3.4-2.2,5-5.3,5-9.5
		c0-3.9-1.3-6.9-3.9-8.8c-3.1-2.2-8.1-3.3-14.9-3.3H342v24.9H359.7z"/>
	<path fill="#00E676" d="M444.5,48.9c1-1.5,2.2-2.3,3.7-2.3c1.5,0,2.6,0.4,3.4,1.3c0.8,0.8,1.2,1.8,1.2,2.9c0,1.1-0.3,2.1-0.8,2.9
		l-23.5,32.8v25c0,1.2-0.4,2.3-1.3,3.1c-0.8,0.8-1.9,1.3-3.1,1.3s-2.3-0.4-3.2-1.3c-0.9-0.8-1.3-1.9-1.3-3.1v-25l-23.4-32.8
		c-0.5-0.8-0.8-1.8-0.8-2.9c0-1.1,0.4-2.1,1.2-2.9c0.8-0.8,1.9-1.3,3.4-1.3c1.5,0,2.7,0.8,3.7,2.3L424,78.7L444.5,48.9z"/>
	<path fill="#00E676" d="M41.4,202.4c6.1,0,11.8-1.4,17.1-4.3v-17.7H42.4c-1.1,0-2.1-0.4-2.8-1.2c-0.8-0.8-1.2-1.7-1.2-2.8
		c0-1.1,0.4-2.1,1.2-2.8c0.8-0.8,1.7-1.2,2.8-1.2h19.3c1.3,0,2.4,0.5,3.3,1.4c0.9,0.9,1.4,2,1.4,3.3v22.2c0,1.4-0.3,2.6-1,3.7
		c-0.7,1.1-1.6,1.9-2.7,2.4c-7.3,3.7-14.8,5.5-22.4,5.5c-10.3,0-18.5-3.3-24.9-9.8c-6.3-6.6-9.5-15-9.5-25.3
		c0-10.4,3.3-18.9,9.9-25.7c6.3-6.4,14.4-9.6,24.2-9.6c5.5,0,10.2,0.7,14.1,2.1c3.8,1.4,7.3,3,10.3,5c1.3,0.7,2,1.7,2,3.1
		c0,1.3-0.4,2.4-1.1,3.2c-0.7,0.8-1.6,1.2-2.6,1.2c-1,0-1.8-0.2-2.5-0.5c-6.3-3.7-12.7-5.5-19.2-5.5c-7.6,0-13.8,2.3-18.6,6.9
		c-5,4.8-7.5,11.4-7.5,19.8c0,7.7,2.4,14,7.1,19C26.7,199.8,33.2,202.4,41.4,202.4z"/>
	<path fill="#00E676" d="M137.7,203.9c0.3,0.8,0.5,1.6,0.5,2.5s-0.4,1.7-1.2,2.6c-0.8,0.8-2,1.3-3.7,1.3c-1.7,0-2.9-0.9-3.7-2.7
		l-6.4-15.3H89.9l-6.4,15.3c-0.8,1.8-2,2.7-3.7,2.7c-1.7,0-2.9-0.4-3.7-1.3c-0.8-0.8-1.2-1.7-1.2-2.6s0.2-1.7,0.5-2.5l25-59
		c1.2-2.7,3.1-4,5.7-4h1c2.6,0,4.5,1.3,5.7,4L137.7,203.9z M119.8,184.2l-13.2-31.8l-13.2,31.8H119.8z"/>
	<path fill="#00E676" d="M222.9,142.9c1.2,1.3,1.9,2.8,1.9,4.6v58.5c0,1.2-0.4,2.3-1.3,3.1c-0.8,0.8-1.9,1.3-3.1,1.3
		c-1.2,0-2.3-0.4-3.2-1.3c-0.9-0.8-1.3-1.9-1.3-3.1v-55.6l-22.6,55.9c-0.5,1.2-1.3,2.2-2.4,3c-1.1,0.7-2.4,1.1-3.8,1.1
		c-1.4,0-2.7-0.4-3.8-1.1c-1.1-0.7-1.9-1.7-2.4-3l-22.6-55.9v55.6c0,1.2-0.4,2.3-1.3,3.1c-0.9,0.8-1.9,1.3-3.2,1.3
		c-1.2,0-2.3-0.4-3.1-1.3c-0.8-0.8-1.3-1.9-1.3-3.1v-58.5c0-1.8,0.6-3.3,1.9-4.6c1.2-1.3,2.7-1.9,4.5-1.9h3.2c1.3,0,2.5,0.4,3.6,1.2
		c1.1,0.8,1.9,1.8,2.4,2.9l22.2,55.4l22.2-55.4c0.5-1.2,1.3-2.2,2.4-2.9c1.1-0.8,2.3-1.2,3.6-1.2h3.2
		C220.2,141,221.7,141.6,222.9,142.9z"/>
	<path fill="#00E676" d="M289.4,202.7c0.8,0.8,1.2,1.8,1.2,3s-0.4,2.2-1.2,2.9c-0.8,0.8-1.8,1.2-3,1.2h-39.3c-1.2,0-2.3-0.4-3.1-1.3
		c-0.8-0.8-1.3-1.9-1.3-3.1V146c0-1.2,0.4-2.3,1.3-3.2c0.8-0.9,1.9-1.3,3.1-1.3h39.3c1.2,0,2.2,0.4,3,1.2c0.8,0.8,1.2,1.8,1.2,3
		c0,1.2-0.4,2.2-1.2,2.9c-0.8,0.8-1.8,1.2-3,1.2h-34.8v21.6h31.2c1.2,0,2.2,0.4,3,1.2c0.8,0.8,1.2,1.8,1.2,3c0,1.2-0.4,2.2-1.2,2.9
		c-0.8,0.8-1.8,1.2-3,1.2h-31.2v21.7h34.8C287.6,201.5,288.6,201.9,289.4,202.7z"/>
</g>
</svg>
